<svg id="Capa_1" enable-background="new 0 0 512 512" height="512" viewBox="0 0 512 512" width="512" xmlns="http://www.w3.org/2000/svg"><g><path d="m366.62 453.757h-100.74l5.7-57.26 44.67-24.63 44.67 24.63z" fill="#333175"/><path d="m366.62 453.757h-50.37v-81.89l44.67 24.63z" fill="#0e0b4e"/><path d="m512 363.176v45.274h-391.534v-45.274l195.784-15z" fill="#4d4b8e"/><path d="m512 363.176v45.274h-195.75v-60.274z" fill="#333175"/><path d="m241.614 438.757h149.272v30h-149.272z" fill="#4d4b8e"/><path d="m316.25 438.757h74.636v30h-74.636z" fill="#333175"/><path d="m135.466 122.243h361.534v225.933h-361.534z" fill="#99e37e"/><path d="m316.25 122.243h180.75v225.933h-180.75z" fill="#5abf8d"/><path d="m120.466 107.243v255.933h391.534v-255.933zm361.534 225.933h-331.534v-195.933h331.534z" fill="#333175"/><path d="m512 107.243v255.933h-195.75v-30h165.75v-195.933h-165.75v-30z" fill="#0e0b4e"/><path d="m192 171.243v161.933l-64 128h-64l-64-128v-161.933l95.98-17.3h.02z" fill="#4d4b8e"/><path d="m192 171.243v161.933l-64 128h-32v-307.233z" fill="#333175"/><path d="m0 333.176v128.002h64v-63.999z" fill="#f53241"/><path d="m128 397.179v63.999h64v-128.002z" fill="#ce0045"/><path d="m192 43.243v64l-96 20.49-96-20.49v-64z" fill="#4d4b8e"/><path d="m192 43.243v64l-96 20.49v-84.49z" fill="#333175"/><path d="m0 107.243h192v64h-192z" fill="#333175"/><path d="m96 107.243h96v64h-96z" fill="#0e0b4e"/><path d="m127.96 276.736c0 17.65-14.31 31.97-31.96 31.98-.01 0-.01 0-.02 0-17.66 0-31.98-14.32-31.98-31.98s14.32-31.98 31.98-31.98h.02c17.65.01 31.96 14.33 31.96 31.98z" fill="#333175"/><path d="m127.96 276.736c0 17.65-14.31 31.97-31.96 31.98v-63.96c17.65.01 31.96 14.33 31.96 31.98z" fill="#0e0b4e"/></g></svg>