<svg height="512pt" viewBox="-19 0 512 512.00273" width="512pt" xmlns="http://www.w3.org/2000/svg"><path d="m431.75 63.886719-30.558594-30.933594-66.980468 49.59375 23.515624 23.804687c17.207032 17.421876 26.859376 40.921876 26.859376 65.410157v198.222656c0 34.738281-19.351563 66.546875-50.117188 82.554687l66.722656 49.410157c39.5625-20.027344 64.496094-60.597657 64.496094-104.9375v-250.472657c0-30.941406-12.195312-60.636718-33.9375-82.652343zm0 0" fill="#607882"/><path d="m314.078125 404.632812h-212.96875c-11.101563 0-20.105469-9-20.105469-20.105468v-234.066406c0-11.105469 9.003906-20.105469 20.105469-20.105469h212.96875c11.101563 0 20.105469 9 20.105469 20.105469v234.066406c0 11.105468-9.003906 20.105468-20.105469 20.105468zm0 0" fill="#607882"/><path d="m266.839844 357.636719h-118.492188c-13.234375 0-23.964844-10.726563-23.964844-23.960938v-132.359375c0-13.238281 10.730469-23.964844 23.964844-23.964844h118.492188c13.234375 0 23.964844 10.726563 23.964844 23.964844v132.359375c0 13.234375-10.730469 23.960938-23.964844 23.960938zm0 0" fill="#2fc0f0"/><path d="m258.246094 357.519531h-101.621094v-72.089843l50.808594-34.085938 50.8125 34.085938zm0 0" fill="#ffe888"/><path d="m189.546875 304.429688h34.785156v53.089843h-34.785156zm0 0" fill="#fcf2b6"/><path d="m100.277344 98.246094h211.496094v32.023437h-211.496094zm0 0" fill="#928fde"/><path d="m100.277344 404.628906h211.496094v32.023438h-211.496094zm0 0" fill="#928fde"/><path d="m399.949219 32.953125h-211.496094l-88.175781 65.292969h211.496094l49.828124-36.894532zm0 0" fill="#ddd7d5"/><path d="m100.277344 436.652344h211.496094l88.175781 65.296875h-211.496094zm0 0" fill="#ddd7d5"/><path d="m224.332031 217.167969c0 9.242187-7.492187 16.738281-16.738281 16.738281s-16.738281-7.496094-16.738281-16.738281c0-9.246094 7.492187-16.742188 16.738281-16.742188s16.738281 7.496094 16.738281 16.742188zm0 0" fill="#ff4c04"/><path d="m166.84375 221.84375c-7.28125-10.464844-21.664062-13.050781-32.132812-5.773438-10.464844 7.277344-13.050782 21.664063-5.773438 32.132813 7.28125 10.464844 21.664062 13.050781 32.132812 5.773437 10.464844-7.28125 13.050782-21.664062 5.773438-32.132812zm0 0" fill="#00dd80"/><path d="m280.890625 216.085938c-10.464844-7.28125-24.851563-4.695313-32.128906 5.773437-7.277344 10.464844-4.695313 24.851563 5.773437 32.128906 10.464844 7.28125 24.851563 4.695313 32.128906-5.773437 7.28125-10.464844 4.695313-24.851563-5.773437-32.128906zm0 0" fill="#ffda44"/><path d="m438.152344 56.824219-30.558594-30.9375c-2.097656-2.121094-4.933594-3.121094-7.734375-2.960938-.21875-.015625-.4375-.027343-.660156-.027343h-211.496094c-2.152344 0-4.25.691406-5.980469 1.976562l-88.175781 65.292969c-.082031.0625-.160156.128906-.238281.191406-.089844.070313-.179688.140625-.269532.214844-.167968.144531-.328124.292969-.488281.445312-.054687.050781-.109375.097657-.160156.152344-.214844.214844-.417969.4375-.609375.667969-.023438.027344-.046875.0625-.070312.089844-.160157.199218-.3125.402343-.457032.613281-.058594.085937-.113281.171875-.167968.257812-.105469.160157-.203126.324219-.296876.488281-.0625.105469-.117187.210938-.175781.320313-.082031.15625-.15625.316406-.230469.480469-.050781.109375-.101562.21875-.152343.332031-.105469.257813-.199219.515625-.285157.78125-.03125.101563-.054687.203125-.082031.304687-.054687.1875-.105469.378907-.148437.570313-.023438.117187-.042969.234375-.066406.351563-.035157.195312-.066407.398437-.089844.597656-.011719.097656-.027344.199218-.035156.300781-.027344.304687-.046876.609375-.046876.914063v.003906.039062 24.0625c-11.261718 4.375-19.269531 15.324219-19.269531 28.117188v234.066406c0 12.789062 8.007813 23.738281 19.269531 28.113281v23.972657.039062c0 .308594.019532.613281.046876.917969.007812.097656.023437.199219.035156.296875.023437.203125.054687.402344.089844.601562.023437.113282.042968.230469.066406.347656.042968.191407.09375.382813.148437.574219.027344.097657.054688.203125.085938.300781.082031.261719.179687.523438.285156.78125.046875.109376.097656.222657.148437.332032.074219.164062.148438.324218.230469.484375.058594.105469.117188.210937.175781.316406.09375.167969.191407.328125.296876.488281.054687.085938.109374.175782.167968.261719.144532.207031.296875.410156.457032.609375.023437.03125.046874.0625.070312.09375.191406.230469.394531.453125.609375.667969.050781.054687.109375.101562.164063.152343.15625.152344.316406.300782.488281.445313.085937.074219.175781.144531.265625.214844.078125.0625.15625.128906.238281.191406l88.175781 65.292969c1.730469 1.28125 3.828125 1.976562 5.980469 1.976562h211.496094c.207031 0 .414062-.011718.617187-.023437.207032.011719.417969.023437.625.023437 1.550782 0 3.105469-.359375 4.539063-1.085937 21.070312-10.664063 38.742187-26.933594 51.109375-47.054688 12.363281-20.117187 18.902344-43.234375 18.902344-66.847656v-250.476563c0-33.804687-13.085938-65.667968-36.839844-89.714843zm-104.386719 384.160156-12.6875-9.394531v-17.917969c12.886719-3.429687 22.410156-15.191406 22.410156-29.144531v-234.066406c0-13.949219-9.523437-25.710938-22.410156-29.140626v-18.007812l10.835937-8.027344 17.910157 18.132813c15.449219 15.640625 23.957031 36.359375 23.957031 58.34375v198.222656c0 29.269531-15.203125 56.003906-40.015625 71zm-243.457031-56.457031v-234.066406c0-5.542969 4.507812-10.050782 10.050781-10.050782h212.96875c5.542969 0 10.054687 4.507813 10.054687 10.050782v234.066406c0 5.542968-4.511718 10.054687-10.054687 10.054687h-2.242187c-.023438 0-.039063-.003906-.058594-.003906h-210.726563c-5.515625-.03125-9.992187-4.527344-9.992187-10.050781zm19.269531-276.230469h191.394531v11.917969h-191.394531zm0 306.386719h191.394531v11.917968h-191.394531zm81.441406-371.679688h177.714844l-61.027344 45.1875h-177.714843zm0 448.890625-61.027343-45.1875h177.71875l61.023437 45.1875zm263.867188-94.882812c0 38.726562-20.386719 73.839843-53.601563 93.050781l-49.695312-36.796875c26.414062-19.230469 42.296875-49.929687 42.296875-83.28125v-198.222656c0-27.308594-10.570313-53.046875-29.757813-72.476563l-15.367187-15.554687 50.65625-37.511719 24.429687 24.730469c20.015625 20.265625 31.039063 47.109375 31.039063 75.589843zm0 0"/><path d="m300.105469 235.726562c.003906-.082031 0-.164062 0-.246093v-34.164063c0-18.757812-15.257813-34.015625-34.015625-34.015625h-118.492188c-18.753906 0-34.015625 15.257813-34.015625 34.015625v132.359375c0 18.757813 15.261719 34.015625 34.015625 34.015625h118.492188c18.757812 0 34.015625-15.257812 34.015625-34.015625zm-152.507813-48.320312h118.492188c7.671875 0 13.910156 6.238281 13.910156 13.910156v3.242188c-5.902344-2.539063-12.421875-3.304688-18.894531-2.144532-8.710938 1.566407-16.292969 6.429688-21.34375 13.699219-5.054688 7.265625-6.972657 16.066407-5.40625 24.777344.941406 5.257813 3.097656 10.097656 6.246093 14.222656l-3.261718 4.6875-20.347656-13.648437v-4.195313c9.753906-4.007812 16.644531-13.605469 16.644531-24.789062 0-14.773438-12.019531-26.789063-26.792969-26.789063-14.769531 0-26.789062 12.015625-26.789062 26.789063 0 11.253906 6.976562 20.902343 16.832031 24.863281v3.78125l-20.351563 13.652344-3.023437-4.351563c3.148437-4.125 5.300781-8.964843 6.246093-14.222656 1.566407-8.710937-.355468-17.511719-5.40625-24.777344-5.054687-7.265625-12.636718-12.132812-21.347656-13.699219-6.625-1.1875-13.300781-.359374-19.316406 2.328126v-3.425782c0-7.671875 6.242188-13.910156 13.910156-13.910156zm-2.757812 60.449219c-3.425782-.613281-6.40625-2.527344-8.394532-5.386719-1.988281-2.855469-2.742187-6.316406-2.128906-9.742188.617188-3.425781 2.53125-6.40625 5.386719-8.394531 2.210937-1.539062 4.777344-2.335937 7.414063-2.335937.773437 0 1.554687.066406 2.332031.207031 3.425781.617187 6.40625 2.53125 8.394531 5.386719 1.988281 2.859375 2.742188 6.320312 2.128906 9.746094-.617187 3.425781-2.53125 6.40625-5.386718 8.394531-2.859376 1.984375-6.320313 2.746093-9.746094 2.125zm34.875 33.789062c.308594-.214843.597656-.449219.875-.691406l26.097656-17.503906 40.757812 27.339843v56.679688h-13.808593v-43.035156c0-5.550782-4.5-10.054688-10.054688-10.054688h-34.785156c-5.550781 0-10.050781 4.503906-10.050781 10.054688v43.035156h-12.816406v-56.679688l12.53125-8.40625c.429687-.214843.847656-.457031 1.253906-.738281zm27.128906-57.792969c-3.6875 0-6.683594-2.996093-6.683594-6.683593s2.996094-6.6875 6.683594-6.6875 6.6875 3 6.6875 6.6875-3 6.683593-6.6875 6.683593zm6.6875 123.617188h-14.679688v-32.984375h14.679688zm45.996094-101.738281c-2.859375-1.988281-4.769532-4.96875-5.386719-8.398438-.613281-3.425781.140625-6.886719 2.128906-9.742187 1.988281-2.859375 4.96875-4.769532 8.394531-5.386719.777344-.140625 1.558594-.210937 2.332032-.210937 2.632812 0 5.203125.800781 7.410156 2.335937 2.859375 1.988281 4.773438 4.96875 5.386719 8.394531.617187 3.429688-.140625 6.890625-2.125 9.746094-1.988281 2.859375-4.96875 4.769531-8.398438 5.386719-3.421875.617187-6.882812-.140625-9.742187-2.125zm-125.839844 87.945312v-68.355469c2.402344 1.0625 4.945312 1.847657 7.59375 2.324219 1.980469.355469 3.964844.53125 5.933594.53125 3.351562 0 6.664062-.511719 9.839844-1.511719l2.78125 4.003907-9.558594 6.414062c-2.78125 1.867188-4.453125 4.996094-4.453125 8.347657v62.03125c-6.832031-.875-12.136719-6.71875-12.136719-13.785157zm133.859375 13.832031v-62.078124c0-3.351563-1.667969-6.480469-4.449219-8.347657l-9.058594-6.078125 3.015626-4.339844c3.175781 1 6.488281 1.511719 9.84375 1.511719 1.964843 0 3.949218-.175781 5.929687-.53125 2.496094-.449219 4.894531-1.175781 7.171875-2.144531v68.175781c.003906 7.175781-5.464844 13.101563-12.453125 13.832031zm0 0"/><path d="m290.054688 55.546875h-92.5625c-5.550782 0-10.054688 4.5-10.054688 10.050781 0 5.550782 4.503906 10.054688 10.054688 10.054688h92.5625c5.550781 0 10.050781-4.503906 10.050781-10.054688 0-5.550781-4.5-10.050781-10.050781-10.050781zm0 0"/><path d="m290.054688 458.785156h-92.5625c-5.550782 0-10.054688 4.5-10.054688 10.050782 0 5.550781 4.503906 10.054687 10.054688 10.054687h92.5625c5.550781 0 10.050781-4.503906 10.050781-10.054687 0-5.550782-4.5-10.050782-10.050781-10.050782zm0 0"/><path d="m89.671875 60.574219c5.296875 1.664062 10.9375-1.289063 12.597656-6.585938 1.660157-5.296875-1.285156-10.9375-6.585937-12.597656-15.449219-4.84375-32.15625-.746094-43.59375 10.699219-11.445313 11.441406-15.542969 28.144531-10.699219 43.597656 1.347656 4.296875 5.3125 7.046875 9.589844 7.046875.996093 0 2.007812-.148437 3.011719-.460937 5.296874-1.660157 8.242187-7.304688 6.582031-12.601563-2.597657-8.28125-.402344-17.234375 5.730469-23.367187 6.128906-6.132813 15.082031-8.324219 23.367187-5.730469zm0 0"/><path d="m78.097656 22.175781c5.300782 1.660157 10.941406-1.289062 12.601563-6.585937 1.660156-5.296875-1.289063-10.9375-6.585938-12.597656-23.085937-7.242188-48.046875-1.117188-65.140625 15.980468-17.097656 17.09375-23.21875 42.054688-15.980468 65.140625 1.347656 4.296875 5.3125 7.050781 9.589843 7.050781.996094 0 2.007813-.152343 3.007813-.464843 5.300781-1.660157 8.246094-7.300781 6.585937-12.601563-4.992187-15.917968-.773437-33.125 11.011719-44.910156s28.992188-16.003906 44.910156-11.011719zm0 0"/><path d="m99.421875 162.652344c1.457031 4.128906 5.335937 6.710937 9.476563 6.710937 1.113281 0 2.242187-.1875 3.347656-.578125 5.238281-1.847656 7.980468-7.589844 6.132812-12.824218l-.074218-.207032c-1.847657-5.238281-7.585938-7.984375-12.824219-6.132812-5.234375 1.847656-7.980469 7.589844-6.132813 12.824218zm0 0"/><path d="m296.554688 162.652344c1.460937 4.128906 5.339843 6.710937 9.480468 6.710937 1.109375 0 2.242188-.1875 3.347656-.578125 5.234376-1.847656 7.980469-7.589844 6.132813-12.824218l-.074219-.207032c-1.847656-5.238281-7.589844-7.984375-12.824218-6.132812-5.238282 1.847656-7.980469 7.589844-6.132813 12.824218zm0 0"/><path d="m435.664062 367.472656c-1.847656-5.234375-7.585937-7.980468-12.824218-6.132812-5.234375 1.847656-7.980469 7.59375-6.132813 12.824218l.074219.210938c1.457031 4.125 5.335938 6.707031 9.480469 6.707031 1.109375 0 2.238281-.1875 3.34375-.574219 5.238281-1.851562 7.980469-7.59375 6.132812-12.828124zm0 0"/><path d="m315.507812 371.535156-.070312-.207031c-1.859375-5.234375-7.605469-7.96875-12.835938-6.113281-5.234374 1.855468-7.96875 7.601562-6.113281 12.835937l.074219.207031c1.460938 4.121094 5.335938 6.691407 9.472656 6.691407 1.113282 0 2.25-.1875 3.359375-.578125 5.234375-1.859375 7.972657-7.605469 6.113281-12.835938zm0 0"/><path d="m118.304688 371.238281c-1.847657-5.234375-7.585938-7.980469-12.824219-6.132812-5.234375 1.847656-7.980469 7.589843-6.132813 12.824219l.074219.207031c1.457031 4.128906 5.335937 6.710937 9.480469 6.710937 1.109375 0 2.238281-.1875 3.347656-.578125 5.234375-1.847656 7.976562-7.589843 6.128906-12.824219zm0 0"/><path d="m416.46875 187.382812v143.59375c0 5.550782 4.5 10.050782 10.050781 10.050782 5.554688 0 10.054688-4.5 10.054688-10.050782v-143.59375c0-5.550781-4.5-10.050781-10.054688-10.050781-5.550781 0-10.050781 4.5-10.050781 10.050781zm0 0"/></svg>